<?xml version="1.0" encoding="UTF-8"?>
<svg id="Layer_1" xmlns="http://www.w3.org/2000/svg" version="1.1" xmlns:xlink="http://www.w3.org/1999/xlink" viewBox="0 0 25.51 25.51">
  <!-- Generator: Adobe Illustrator 29.4.0, SVG Export Plug-In . SVG Version: 2.1.0 Build 152)  -->
  <defs>
    <style>
      .st0 {
        fill: #fff;
      }

      .st1 {
        fill: #675e6b;
      }
    </style>
    <symbol id="_Новый_символ_29" data-name="Новый_символ_29" viewBox="0 0 25.51 25.51">
      <g id="_Новый_символ" data-name="Новый_символ">
        <g>
          <rect class="st1" x="0" y="0" width="25.51" height="25.51" rx="3.03" ry="3.03"/>
          <g>
            <path class="st0" d="M13.58,19.97s-1.2.31-1.28,0c-.12-.48,0-6.22,0-6.22,0,0,1.12-.28,1.28,0,.17.3,0,6.22,0,6.22Z"/>
            <path class="st0" d="M16.56,19.95c.1.08.28,1.12,0,1.28-.33.18-2.02.42-3.65.39-1.8-.03-3.54-.34-3.57-.39-.07-.09-.23-1.05,0-1.28.16-.16,1.88-.22,3.61-.19s3.59.16,3.62.19Z"/>
            <path class="st0" d="M19.16,5.34c-.14-.22-.41-.39-.89-.43-3.29-.26-11.28-.61-11.89.35-.64,1,.68,3.97,1.14,4.89.77,1.52,1.89,2.87,3.27,3.87.73.52,1.58.96,2.47.9.82-.06,1.56-.52,2.21-1.02,2.15-1.66,3.48-4.82,3.79-7.37.02-.26.15-.8-.1-1.18ZM17.46,8.12c-.69.5-8.32.46-9.1,0-.41-.24-.87-1.86-.66-2.04.45-.38,9.76-.24,10.19.05.22.14-.2,1.82-.43,1.99Z"/>
          </g>
        </g>
      </g>
    </symbol>
  </defs>
  <use width="25.51" height="25.51" xlink:href="#_Новый_символ_29"/>
</svg>