<?xml version="1.0" encoding="UTF-8"?>
<svg id="Layer_1" xmlns="http://www.w3.org/2000/svg" version="1.1" xmlns:xlink="http://www.w3.org/1999/xlink" viewBox="0 0 25.51 25.51">
  <!-- Generator: Adobe Illustrator 29.6.1, SVG Export Plug-In . SVG Version: 2.1.1 Build 9)  -->
  <defs>
    <style>
      .st0 {
        fill: #fff;
      }

      .st1 {
        fill: none;
      }

      .st2 {
        fill: #675e6b;
      }

      .st3 {
        clip-path: url(#clippath);
      }
    </style>
    <clipPath id="clippath">
      <rect id="SVGID" class="st1" y="0" width="25.51" height="25.51"/>
    </clipPath>
    <symbol id="restaurant" viewBox="0 0 25.51 25.51">
      <g class="st3">
        <path class="st2" d="M3.03,25.51h19.45c1.67,0,3.03-1.36,3.03-3.03V3.03c0-1.67-1.36-3.03-3.03-3.03H3.03C1.36,0,0,1.36,0,3.03v19.45c0,1.67,1.36,3.03,3.03,3.03"/>
        <path class="st0" d="M14.92,9.42c-.65,2.84,2.76,4.3,2.76,4.3v8.85c.2.33.91.35,1.39,0V3.37c0-.31-.16-.55-.68-.53h-.07c-1.39,0-3.41,6.58-3.41,6.58"/>
        <path class="st0" d="M12.33,8.93c-.04.48-.07.66-.12.87-.27,1.14-.85,3.18-2.64,3.89l-.03,8.99c-.26.26-1.08.12-1.46,0v-9c-1.27-.49-2.02-2.11-2.38-3.14-.05-.13-.3-.75-.32-1.58-.04-1.47.12-5.87.12-5.87.39-.17,1-.24,1.24,0v5.9c0,.39.16,1.11.76,1.12.57.01.68-.84.68-.84V3.09c.34-.16,1.12-.24,1.36,0v6.17c0,.49.32.9.7.9.3,0,.71-.31.73-1.27V3.09c.23-.24.99-.18,1.35,0,0,0,.14,4.39,0,5.84"/>
      </g>
    </symbol>
  </defs>
  <use width="25.51" height="25.51" xlink:href="#restaurant"/>
</svg>