<?xml version="1.0" encoding="UTF-8"?>
<svg id="Layer_1" xmlns="http://www.w3.org/2000/svg" version="1.1" xmlns:xlink="http://www.w3.org/1999/xlink" viewBox="0 0 25.51 25.51">
  <!-- Generator: Adobe Illustrator 29.4.0, SVG Export Plug-In . SVG Version: 2.1.0 Build 152)  -->
  <defs>
    <style>
      .st0 {
        fill: #fff;
      }

      .st1 {
        fill: none;
      }

      .st2 {
        fill: #675e6b;
      }

      .st3 {
        clip-path: url(#clippath);
      }
    </style>
    <clipPath id="clippath">
      <rect id="SVGID" class="st1" y="0" width="25.51" height="25.51"/>
    </clipPath>
    <symbol id="cafe" viewBox="0 0 25.51 25.51">
      <g class="st3">
        <path class="st2" d="M3.03,25.51h19.45c1.67,0,3.03-1.36,3.03-3.03V3.03c0-1.67-1.36-3.03-3.03-3.03H3.03C1.36,0,0,1.36,0,3.03v19.45C0,24.16,1.36,25.51,3.03,25.51"/>
        <path class="st0" d="M22.77,13.83c-.36-2.17-2.78-2.13-3.62-1.77,0,0-.27.1-.63.25,0-.19,0-.39,0-.58-.04-.62-.53-1.11-1.15-1.17-3.64-.3-12.48-.26-13.12.81-.67,1.13.9,4.36,1.44,5.35.9,1.66,2.19,3.11,3.75,4.16.82.55,1.77,1.01,2.76.9.9-.09,1.69-.65,2.41-1.21.75-.58,1.49-1.2,2.1-1.91,1.73-.14,4.66-.93,5.57-2.48.47-.81.62-1.61.5-2.36M17.64,17.08s.7-1.93.8-2.89c.8-.84,2.56-1.41,2.84-.03.39,1.92-2.56,2.77-3.64,2.92"/>
        <path class="st0" d="M9.5,6.89c.07.08.13.16.2.24.23.29.13.66.01.77-.09.08-.19.15-.31.2-.2.11-.28.33-.22.53l.21.6c.08.23.37.34.61.24.32-.13.61-.31.86-.53.4-.34.64-.73.71-1.14.07-.48-.1-.99-.51-1.51-.08-.1-.16-.19-.24-.29-.15-.17-.28-.33-.36-.48-.76-1.43.56-2.3.56-2.3-.49-.27-1.13-.15-1.59.28-.73.69-.93,1.77-.49,2.62.16.3.37.55.55.76"/>
        <path class="st0" d="M12.7,6.89c.07.08.14.16.2.24.23.29.13.66,0,.77-.09.08-.19.15-.31.2-.2.11-.28.33-.22.53l.21.6c.08.23.37.34.61.24.32-.13.61-.31.86-.53.4-.34.64-.73.71-1.14.07-.48-.1-.99-.51-1.51-.08-.1-.16-.19-.24-.29-.15-.17-.28-.33-.36-.48-.76-1.43.56-2.3.56-2.3-.49-.27-1.13-.15-1.59.28-.73.69-.93,1.77-.49,2.62.16.3.37.55.55.76"/>
      </g>
    </symbol>
  </defs>
  <use width="25.51" height="25.51" transform="translate(0 0)" xlink:href="#cafe"/>
</svg>