<?xml version="1.0" encoding="UTF-8"?>
<svg id="Layer_1" xmlns="http://www.w3.org/2000/svg" version="1.1" viewBox="0 0 25.51 25.51">
  <!-- Generator: Adobe Illustrator 29.4.0, SVG Export Plug-In . SVG Version: 2.1.0 Build 152)  -->
  <defs>
    <style>
      .st0 {
        fill: #fff;
      }

      .st1 {
        fill: #675e6b;
      }
    </style>
  </defs>
  <g id="_ДК__xAB_Красная_Поляна_xBB_" data-name="ДК__xAB_Красная_Поляна_xBB_">
    <g id="_Новый_символ_32" data-name="Новый_символ_32">
      <g id="_Новый_символ" data-name="Новый_символ">
        <rect class="st1" y="0" width="25.51" height="25.51" rx="3.03" ry="3.03"/>
      </g>
    </g>
    <g id="cultural_x5F_center">
      <g>
        <path class="st0" d="M17.51,21.01c-.18.15-2.45.36-4.74.36s-4.55-.22-4.74-.36-.22-4.67,0-4.92c.12-.14,1.18.08,4.75.09s4.64-.25,4.73-.09c.18.34.15,4.8,0,4.92Z"/>
        <path class="st0" d="M17.49,14.65c-.36.09-4.71.48-9.45.13-.2-.01-.17-2.09-.04-2.19.13-.1,9.3-.07,9.48,0,.23.09.15,2.03,0,2.06Z"/>
        <path class="st0" d="M4.73,10.51c.57.23,1.36.27,1.97.02.46-.19.82-.55,1.01-1,.19-.46.19-.96,0-1.42-.14-.34-.57-.79-1.03-.81-.12,0,.39-.76.61-.86.29-.13,1.34.66,1.58,1.23.28.68.32,1.5.03,2.18-.27.64-.86,1.24-.86,1.37,0,.21,2.47.26,4.85.24,2.22-.02,4.53-.11,4.69-.27.1-.1-.72-.89-.9-1.31-.28-.68-.29-1.46,0-2.14.26-.63,1.47-1.35,1.66-1.31.23.06.64.62.49.8-.08.09-.67.4-.85.85-.19.46-.19.96,0,1.42.19.46.55.81,1.01,1,.61.25,1.18.27,1.76.08.99-.32,1.63-1.2,1.63-2.39,0-1.73-.98-3.41-3.22-3.58-3.72-.28-9.75-.23-12.79.06-2.15.2-3.21,1.38-3.21,3.11,0,1.19.31,2.08,1.58,2.73"/>
      </g>
    </g>
  </g>
</svg>