<?xml version="1.0" encoding="UTF-8"?>
<svg id="Layer_1" xmlns="http://www.w3.org/2000/svg" version="1.1" viewBox="0 0 25.51 25.51">
  <!-- Generator: Adobe Illustrator 29.4.0, SVG Export Plug-In . SVG Version: 2.1.0 Build 152)  -->
  <defs>
    <style>
      .st0 {
        fill: #fff;
      }

      .st1 {
        fill: #675e6b;
      }
    </style>
  </defs>
  <g id="Heavy_Metal_Fitness">
    <g>
      <rect class="st1" y="0" width="25.51" height="25.51" rx="3.03" ry="3.03"/>
      <g>
        <g>
          <path class="st0" d="M7.34,11.98c-.09.11-1.19.3-1.35,0-.19-.35-.44-2.14-.41-3.87.03-1.9.36-3.75.41-3.78.1-.07,1.11-.24,1.35,0,.17.17.23,1.98.2,3.82s-.17,3.8-.2,3.83Z"/>
          <path class="st0" d="M4.71,11.21c-.09.08-1.25.22-1.41-.01-.19-.27-.44-1.64-.41-2.97.03-1.46.36-2.87.41-2.9.1-.06,1.17-.11,1.41.07.17.13.02,1.45-.01,2.85s.04,2.93.01,2.95Z"/>
          <path class="st0" d="M17.69,11.21c.09.08,1.25.22,1.41-.01.19-.27.44-1.64.41-2.97-.03-1.46-.36-2.87-.41-2.9-.1-.06-1.17-.11-1.41.07-.17.13-.02,1.45.01,2.85s-.04,2.93-.01,2.95Z"/>
          <path class="st0" d="M15.02,8.83s-2.82.12-3.97.11c-1.15.01-3.73-.11-3.73-.11,0,0-.33-1.27,0-1.35.27-.07,2.13-.11,3.81-.09,1.69-.02,3.61.02,3.88.09.33.08,0,1.35,0,1.35Z"/>
          <path class="st0" d="M15.01,11.98c.09.11,1.19.3,1.35,0,.19-.35.44-2.14.41-3.87-.03-1.9-.36-3.75-.41-3.78-.1-.07-1.11-.24-1.35,0-.17.17-.23,1.98-.2,3.82s.17,3.8.2,3.83Z"/>
        </g>
        <g>
          <path class="st0" d="M10.45,21.15c-.09.11-1.19.3-1.35,0-.19-.35-.44-2.14-.41-3.87.03-1.9.36-3.75.41-3.78.1-.07,1.11-.24,1.35,0,.17.17.23,1.98.2,3.82s-.17,3.8-.2,3.83Z"/>
          <path class="st0" d="M7.82,20.38c-.09.08-1.25.22-1.41-.01-.19-.27-.44-1.64-.41-2.97.03-1.46.36-2.87.41-2.9.1-.06,1.17-.11,1.41.07.17.13.02,1.45-.01,2.85s.04,2.93.01,2.95Z"/>
          <path class="st0" d="M20.8,20.38c.09.08,1.25.22,1.41-.01.19-.27.44-1.64.41-2.97-.03-1.46-.36-2.87-.41-2.9-.1-.06-1.17-.11-1.41.07-.17.13-.02,1.45.01,2.85s-.04,2.93-.01,2.95Z"/>
          <path class="st0" d="M18.13,18s-2.82.12-3.97.11c-1.15.01-3.73-.11-3.73-.11,0,0-.33-1.27,0-1.35.27-.07,2.13-.11,3.81-.09,1.69-.02,3.61.02,3.88.09.33.08,0,1.35,0,1.35Z"/>
          <path class="st0" d="M18.11,21.15c.09.11,1.19.3,1.35,0,.19-.35.44-2.14.41-3.87-.03-1.9-.36-3.75-.41-3.78-.1-.07-1.11-.24-1.35,0-.17.17-.23,1.98-.2,3.82s.17,3.8.2,3.83Z"/>
        </g>
      </g>
    </g>
  </g>
</svg>