<?xml version="1.0" encoding="UTF-8"?>
<svg id="Layer_1" xmlns="http://www.w3.org/2000/svg" version="1.1" xmlns:xlink="http://www.w3.org/1999/xlink" viewBox="0 0 26.36 26.36">
  <!-- Generator: Adobe Illustrator 29.4.0, SVG Export Plug-In . SVG Version: 2.1.0 Build 152)  -->
  <defs>
    <style>
      .st0 {
        fill: #fff;
      }

      .st1 {
        fill: none;
        stroke: #fff;
        stroke-linecap: round;
        stroke-linejoin: round;
        stroke-width: 1.3px;
      }

      .st2 {
        fill: #675e6b;
      }
    </style>
    <symbol id="fuel_x5F_station" viewBox="0 0 26.36 26.36">
      <g>
        <circle class="st2" cx="13.18" cy="13.18" r="13.18"/>
        <g>
          <path class="st0" d="M6.43,21.05c-.38-1.37-.61-14.76.14-15.8-.09-.22,9.57-.42,10.02-.06.7.57.37,15.65.15,15.97-.19.28-10.18.3-10.31-.11Z"/>
          <path class="st2" d="M7.75,7.42c.67-.18,7.08-.3,7.59.07.11-.04.21,4.75.03,4.97-.28.34-7.51.18-7.67.07-.14-.09-.06-5.16.05-5.11Z"/>
          <path class="st1" d="M12.73,20.66h6.25c2.51,0,1.3-10.28,1.3-10.28l-1.61-2.63"/>
          <path class="st0" d="M18.05,7.7s0,3.91.36,4.4c.12.16,1.7.19,1.7.19l-.14-2.23-1.93-2.37Z"/>
        </g>
      </g>
    </symbol>
  </defs>
  <use id="_АЗС" data-name="АЗС" width="26.36" height="26.36" xlink:href="#fuel_x5F_station"/>
</svg>