<?xml version="1.0" encoding="UTF-8"?>
<svg id="Layer_1" xmlns="http://www.w3.org/2000/svg" version="1.1" viewBox="0 0 25.51 25.51">
  <!-- Generator: Adobe Illustrator 29.4.0, SVG Export Plug-In . SVG Version: 2.1.0 Build 152)  -->
  <defs>
    <style>
      .st0 {
        fill: #fff;
      }

      .st1 {
        fill: #675e6b;
      }
    </style>
  </defs>
  <g id="_Администрация_Краснополянского_округа" data-name="Администрация_Краснополянского_округа">
    <g>
      <rect class="st1" y="0" width="25.51" height="25.51" rx="3.03" ry="3.03"/>
      <g>
        <path class="st0" d="M20.06,15.85c-.03,1.45-.28,1.88-.74,2.29-.43.38-.95.67-2.03,1.06-1.11.4-2.39.84-3.41,1.41-.6.34-.86.69-1.07.75h0s-.03.01-.04.02c0,0-.01,0-.01,0,0,0,0,0,0,0s0,0,0,0c0,0-.01,0-.01,0-.01,0-.03-.01-.04-.02h0c-.2-.07-.47-.42-1.07-.76-1.02-.57-2.31-1.01-3.41-1.41-1.09-.39-1.6-.68-2.03-1.06-.46-.41-.71-.84-.74-2.29-.08-3.75-.05-10.42.15-10.79.13-.24,2.01.15,7.09.14,0,0,0,0,.01,0h0s.04,0,.06,0c.02,0,.04,0,.06,0h0s0,0,.01,0c5.09.01,6.96-.37,7.09-.14.2.37.22,7.04.15,10.79Z"/>
        <g>
          <path class="st1" d="M8.32,12.76c.38,0,.69-.31.69-.69s-.31-.69-.69-.69-.69.31-.69.69.31.69.69.69"/>
          <path class="st1" d="M9.51,15.86c.19-.25.55-1.05.55-1.39,0-.83-.91-1.02-1.74-1.02-.83,0-1.75.19-1.75,1.02,0,.34.36,1.14.55,1.39h2.4Z"/>
          <path class="st1" d="M12.73,8.8h0c.38,0,.69-.31.69-.69s-.31-.69-.69-.69h0c-.38,0-.69.31-.69.69s.31.69.69.69"/>
          <path class="st1" d="M9.9,11.42v.03s.06.22.06.22l.02.07.02.04c.18.61.55,1.39.78,1.69h3.91c.23-.3.6-1.08.78-1.69v-.04s.03-.07.03-.07l.05-.22v-.03s.03-.2.03-.2c0-1.34-1.45-1.66-2.79-1.67h-.12c-1.34.01-2.79.33-2.79,1.67l.02.2Z"/>
          <path class="st1" d="M17.14,12.76c.38,0,.69-.31.69-.69s-.31-.69-.69-.69-.69.31-.69.69c0,.38.31.69.69.69"/>
          <path class="st1" d="M15.94,15.86h2.4c.19-.25.55-1.05.55-1.39,0-.83-.92-1.03-1.75-1.02-.83,0-1.75.19-1.75,1.02,0,.34.36,1.14.55,1.39"/>
        </g>
      </g>
    </g>
  </g>
</svg>