<?xml version="1.0" encoding="UTF-8"?>
<svg id="Layer_1" xmlns="http://www.w3.org/2000/svg" version="1.1" xmlns:xlink="http://www.w3.org/1999/xlink" viewBox="0 0 25.51 25.51">
  <!-- Generator: Adobe Illustrator 29.4.0, SVG Export Plug-In . SVG Version: 2.1.0 Build 152)  -->
  <defs>
    <style>
      .st0 {
        fill: #fff;
      }

      .st1, .st2 {
        fill: none;
      }

      .st3 {
        fill: #675e6b;
      }

      .st2 {
        stroke: #fff;
        stroke-linecap: round;
        stroke-linejoin: round;
        stroke-width: 1.47px;
      }

      .st4 {
        clip-path: url(#clippath);
      }
    </style>
    <clipPath id="clippath">
      <rect id="SVGID" class="st1" y="0" width="25.51" height="25.51"/>
    </clipPath>
    <symbol id="shopping_x5F_center" viewBox="0 0 25.51 25.51">
      <g class="st4">
        <path class="st3" d="M3.03,25.51h19.45c1.67,0,3.03-1.36,3.03-3.03V3.03c0-1.67-1.36-3.03-3.03-3.03H3.03C1.36,0,0,1.36,0,3.03v19.45c0,1.67,1.36,3.03,3.03,3.03"/>
        <path class="st0" d="M9.72,18.92c-.81,0-1.47.78-1.47,1.59s.66,1.59,1.47,1.59,1.47-.78,1.47-1.59-.66-1.59-1.47-1.59"/>
        <path class="st0" d="M15.56,18.92c-.81,0-1.47.78-1.47,1.59s.66,1.59,1.47,1.59,1.47-.78,1.47-1.59-.66-1.59-1.47-1.59"/>
        <path class="st2" d="M18.43,17.39s-10.56.27-10.85,0c-.22-.2-1.29-12.33-1.59-12.56-.32-.24-1.6,0-1.6,0"/>
        <path class="st0" d="M6.82,6.96s9.78-.02,13.35-.06c.83,0,1.31.36,1.22,1.12-.2,1.6-.85,4.55-1.21,5.84-.1.36-.48.7-.85.76-2.48.4-11.49,1.48-11.49,1.48l-1.03-9.14Z"/>
      </g>
    </symbol>
  </defs>
  <use width="25.51" height="25.51" xlink:href="#shopping_x5F_center"/>
</svg>