<?xml version="1.0" encoding="UTF-8"?>
<svg id="Layer_1" xmlns="http://www.w3.org/2000/svg" version="1.1" xmlns:xlink="http://www.w3.org/1999/xlink" viewBox="0 0 26.36 26.36">
  <!-- Generator: Adobe Illustrator 29.4.0, SVG Export Plug-In . SVG Version: 2.1.0 Build 152)  -->
  <defs>
    <style>
      .st0 {
        stroke: #fff;
        stroke-linecap: round;
        stroke-linejoin: round;
        stroke-width: 1.3px;
      }

      .st0, .st1 {
        fill: none;
      }

      .st2 {
        fill: #fff;
      }

      .st3 {
        fill: #675e6b;
      }

      .st4 {
        clip-path: url(#clippath);
      }
    </style>
    <clipPath id="clippath">
      <rect id="SVGID" class="st1" width="26.36" height="26.36"/>
    </clipPath>
    <symbol id="helipad" viewBox="0 0 26.36 26.36">
      <g class="st4">
        <path class="st3" d="M26.36,13.18c0,7.28-5.9,13.18-13.18,13.18S0,20.46,0,13.18,5.9,0,13.18,0s13.18,5.9,13.18,13.18"/>
        <path class="st0" d="M21.07,8.59s-6.2-.54-14.59,0"/>
        <path class="st0" d="M11.24,19.78s6.72.15,8.69.04c1.08-.06,2.02-.93,2.02-.93"/>
        <line class="st0" x1="13.84" y1="7.71" x2="13.84" y2="8.03"/>
        <path class="st2" d="M9.82,15.12c.36.68.75,1.34,1.28,1.9.54.56,1.17.93,1.97.95h6.29c.1-.02.2-.03.29-.05.62-.11,1.2-.33,1.65-.79.49-.5.69-1.09.41-1.76-.11-.27-.27-.53-.44-.77-.76-1.06-1.75-1.86-2.91-2.45-.87-.44-1.79-.72-2.77-.78-.06,0-.15-.07-.18-.13-.22-.42-.88-1.47-1.08-1.53-.42-.13-.73-.07-1.09,0-.43.08-1.36,1.09-1.81,1.53-.06.06-.16.11-.25.11-2,0-3.99,0-5.99,0-.7,0-.95-.82-1.55-2.1-.15-.32-.34-.38-.66-.25-.21.09-.95.45-1.03.65-.1.11.58,2.93.84,4.57.03.22.11.37.29.43.45.15.76-.02,1.02-.42.46-.72.63-1.26,1.22-1.11,1.11.23,2.21.48,3.28.89.51.2.97.45,1.15,1.02.01.04.04.07.05.1M20.84,15.43s-.02.04-.03.06c-1.08,0-2.16,0-3.24,0-.5,0-.92-.39-1.09-.93-.21-.69-.42-1.38-.62-2.07-.02-.08-.05-.16-.08-.27,2.19.33,3.82,1.47,5.05,3.21"/>
      </g>
    </symbol>
  </defs>
  <use width="26.36" height="26.36" xlink:href="#helipad"/>
</svg>