<?xml version="1.0" encoding="UTF-8"?>
<svg id="Layer_1" xmlns="http://www.w3.org/2000/svg" version="1.1" xmlns:xlink="http://www.w3.org/1999/xlink" viewBox="0 0 25.51 25.51">
  <!-- Generator: Adobe Illustrator 29.6.1, SVG Export Plug-In . SVG Version: 2.1.1 Build 9)  -->
  <defs>
    <style>
      .st0 {
        fill: #fff;
      }

      .st1 {
        fill: #675e6b;
      }
    </style>
    <symbol id="hotel" viewBox="0 0 25.51 25.51">
      <g>
        <rect class="st1" y="0" width="25.51" height="25.51" rx="3.03" ry="3.03"/>
        <g>
          <path class="st0" d="M22.79,16.4s-.33,3.76-.35,3.82c-.04.17-1.03.38-1.17,0v-1.8c-3.3.43-14.24.27-17.07.12l.05,1.68c-.15.31-1.07.22-1.17,0-.02-.05-.4-2.89-.35-3.82.14-2.32,1.25-2.94,2.73-2.94,3.67,0,14.69.04,14.69.04,1.48,0,2.62.8,2.64,2.9Z"/>
          <path class="st0" d="M20.27,8.03c-.24-1.49-3.35-2.61-7.5-2.61s-7.21,1.06-7.53,2.61c-.28,1.35.26,4.42.26,4.42,0,0,1.27.18,1.27-.01.03-1.14,1.67-1.22,2.47-1.34.93-.13,2.68-.12,2.8,1.18.03.29,1.42.37,1.45.16.19-1.3,1.06-1.46,2.41-1.4.93.04,2.76.1,2.85,1.4.02.22,1.12-.02,1.12-.02,0,0,.61-3.16.41-4.4Z"/>
        </g>
      </g>
    </symbol>
  </defs>
  <use width="25.51" height="25.51" xlink:href="#hotel"/>
</svg>