<?xml version="1.0" encoding="UTF-8"?>
<svg id="Layer_1" xmlns="http://www.w3.org/2000/svg" version="1.1" viewBox="0 0 25.51 25.51">
  <!-- Generator: Adobe Illustrator 29.4.0, SVG Export Plug-In . SVG Version: 2.1.0 Build 152)  -->
  <defs>
    <style>
      .st0 {
        fill: #fff;
      }

      .st1 {
        fill: #675e6b;
      }
    </style>
  </defs>
  <rect class="st1" x="0" y="0" width="25.51" height="25.51" rx="3.03" ry="3.03"/>
  <g>
    <path class="st0" d="M19.05,18.33c-.08.1-.21.21-.39.28-1.64.63-7.13,2.39-7.96,2.62-3.09.84-4.33-.79-4.52-1.1-.12-.11-.36-.74-.39-1.65v-9.66c0-1.34-.01-2.04,2-2.64,2.51-.75,7.87-2.09,7.92-2.11.54-.19.36,1.02.04,1.11-.21.06-5.08,1.44-7.67,2.02-.3.07-.59.24-.65.44-.1.26.29,1.51,3.11,1.24,1.01-.09,5.88-1.85,8.01-2.44.48-.13.68-.15.85-.09.21.08.26.27.29.91.12,2.44-.16,8.68-.43,10.46-.04.28-.13.54-.21.63Z"/>
    <path class="st1" d="M6.46,11.24c-.03-.33.02-.87.41-.7.71.32,1.13.7,2.53.71.68,0,.6.37.61.7s-.04,1.01-.78,1.01c-1.59,0-2.12-.48-2.43-.78-.26-.25-.33-.81-.34-.94Z"/>
    <path class="st1" d="M6.46,17.4c-.03-.33.02-.87.41-.7.71.32,1.15.7,2.54.72.68,0,.6.37.61.7s-.04,1.01-.78,1.01c-1.59,0-2.13-.49-2.44-.79-.26-.25-.33-.81-.34-.94Z"/>
  </g>
</svg>