<?xml version="1.0" encoding="UTF-8"?>
<svg id="Layer_1" xmlns="http://www.w3.org/2000/svg" version="1.1" xmlns:xlink="http://www.w3.org/1999/xlink" viewBox="0 0 25.51 25.51">
  <!-- Generator: Adobe Illustrator 29.4.0, SVG Export Plug-In . SVG Version: 2.1.0 Build 152)  -->
  <defs>
    <style>
      .st0 {
        fill: #fff;
      }

      .st1, .st2 {
        fill: none;
      }

      .st3 {
        fill: #675e6b;
      }

      .st2 {
        stroke: #fff;
        stroke-linecap: round;
        stroke-linejoin: round;
        stroke-width: 1.47px;
      }

      .st4 {
        clip-path: url(#clippath);
      }
    </style>
    <clipPath id="clippath">
      <rect id="SVGID" class="st1" y="0" width="25.51" height="25.51"/>
    </clipPath>
  </defs>
  <g class="st4">
    <path class="st3" d="M3.03,25.51h19.45c1.67,0,3.03-1.36,3.03-3.03V3.03c0-1.67-1.36-3.03-3.03-3.03H3.03C1.36,0,0,1.36,0,3.03v19.45c0,1.67,1.36,3.03,3.03,3.03"/>
    <path class="st0" d="M21.71,11.44c-.27,2.13-1.13,6.07-1.61,7.79-.14.49-.64.93-1.13,1.01-1.06.17-4.8.17-6.22.16-1.43,0-5.17.01-6.22-.16-.49-.08-.99-.53-1.13-1.01-.48-1.72-1.34-5.66-1.61-7.79-.13-1.01.51-1.51,1.62-1.5,1.71.02,4.49.04,7.34.05,2.86-.01,5.63-.03,7.34-.05,1.11-.01,1.75.48,1.62,1.5"/>
    <path class="st2" d="M8.46,11.52c.32-2.99.72-4.89.85-4.95.93-.45,5.67-.53,6.65,0,.13.07.53,1.96.85,4.95"/>
    <path class="st3" d="M13.38,12.35c1.56,0,2.82,1.31,2.82,3.15s-1.26,3.15-2.82,3.15-2.88-1.07-2.88-2.91c0-.14-.02-.4.02-.41,2.35-.45,2.13-2.73,2.28-2.91.05-.07.38-.07.57-.07"/>
    <path class="st3" d="M12.05,11.89s-1.43-.5-3.06.67c-1.63,1.16-1.49,1.37,0,2,1.49.63,3.28-.76,3.06-2.66"/>
  </g>
</svg>