<?xml version="1.0" encoding="UTF-8"?>
<svg id="Layer_1" xmlns="http://www.w3.org/2000/svg" version="1.1" xmlns:xlink="http://www.w3.org/1999/xlink" viewBox="0 0 22.21 31.3">
  <!-- Generator: Adobe Illustrator 29.4.0, SVG Export Plug-In . SVG Version: 2.1.0 Build 152)  -->
  <defs>
    <style>
      .st0 {
        fill: none;
      }

      .st1 {
        fill: #675e6b;
      }

      .st2 {
        clip-path: url(#clippath);
      }
    </style>
    <clipPath id="clippath">
      <rect id="SVGID" class="st0" x="0" width="22.21" height="31.3"/>
    </clipPath>
  </defs>
  <g id="_Парк__xAB_Фруктовый_сад_xBB_" data-name="Парк__xAB_Фруктовый_сад_xBB_">
    <g class="st2">
      <path class="st1" d="M6.19,25.97c-.17,2.51-.29,5.17.23,5.26.64.11,2.6.08,2.7-.08.3-.51.09-3-.12-5.31-.03-.29-2.77-.56-2.81.14"/>
      <path class="st1" d="M13.14,24.43c-.72.4-4.45,0-5.61.04-4.68.14-7.32.95-7.52-3.48C-.28,14.65,5.42,2.3,6.02,1.11c.96-1.89,2.24-1.01,2.71.05,1.25,2.77,10.11,20.08,4.4,23.27"/>
      <path class="st1" d="M17,28.43c.06,1.33.15,2.29-.09,2.7-.1.17-1.1.22-1.74.1-.22-.04-.27-.85-.17-2.82.05-.18,1.96-.13,2,.02M20.59,19.72c-.57,0-.5-1.35-.5-1.35,0,0,.28-5.96-4.9-4.83,0,0,1.65,4.2,1.15,7.4-.42,2.69-1.41,4.11-2.92,4.35-.69.11-2.27.07-2.32.1-.26.21.18,1.17,1.05,1.56,1.6.72,6.23.76,7.85-.31.97-.64,1.79-2.67,2.15-4.37.36-1.7-.99-2.55-1.56-2.55"/>
    </g>
  </g>
</svg>