<?xml version="1.0" encoding="UTF-8"?>
<svg id="Layer_1" xmlns="http://www.w3.org/2000/svg" version="1.1" xmlns:xlink="http://www.w3.org/1999/xlink" viewBox="0 0 25.51 25.51">
  <!-- Generator: Adobe Illustrator 29.4.0, SVG Export Plug-In . SVG Version: 2.1.0 Build 152)  -->
  <defs>
    <style>
      .st0 {
        fill: #fff;
      }

      .st1 {
        fill: #35b558;
      }
    </style>
    <symbol id="pharmacy" viewBox="0 0 25.51 25.51">
      <g>
        <rect class="st1" x="0" y="0" width="25.51" height="25.51" rx="3.03" ry="3.03"/>
        <path class="st0" d="M10.23,22.99c.23.34,4.41.49,5.1,0,.37-.26,0-7.65,0-7.65,0,0,7.31.26,7.65,0,.29-.22.36-5.07,0-5.1-1.63-.14-7.65,0-7.65,0,0,0,.17-7.38,0-7.65-.41-.68-4.94-.52-5.1,0s0,7.65,0,7.65c0,0-7.56-.1-7.66,0-.27.28-.19,5.01,0,5.1.33.16,7.66,0,7.66,0,0,0-.19,7.38,0,7.65Z"/>
      </g>
    </symbol>
  </defs>
  <use width="25.51" height="25.51" xlink:href="#pharmacy"/>
</svg>