<?xml version="1.0" encoding="UTF-8"?>
<svg id="Layer_1" xmlns="http://www.w3.org/2000/svg" version="1.1" viewBox="0 0 26.36 26.36">
  <!-- Generator: Adobe Illustrator 29.4.0, SVG Export Plug-In . SVG Version: 2.1.0 Build 152)  -->
  <defs>
    <style>
      .st0 {
        fill: #fff;
      }

      .st1 {
        fill: #675e6b;
      }
    </style>
  </defs>
  <circle class="st1" cx="13.18" cy="13.18" r="13.18"/>
  <g>
    <path class="st0" d="M5.75,7.56s-.1.16.04.29c1.18,1.12,6.72,6.35,7.32,6.35s6.35-5.01,7.51-6.4c.15-.18.12-.35-.01-.38-.05-.01-.37-.06-.57-.07-2.56-.15-10.66-.16-13.5.1-.57.05-.73.03-.78.12Z"/>
    <path class="st0" d="M21.1,18.55c-.86,1.02-14.84,1.25-15.86,0-.22.09-.29-6.95-.25-8.97,0-.19.03-.28.05-.32.03-.05.12-.08.33.13,1.32,1.32,6.3,6.2,7.7,6.62,1.29-.16,6.41-5.07,7.84-6.45.12-.11.21-.18.21-.18.12-.07.2.02.21.28.1,1.91-.02,8.98-.25,8.89Z"/>
  </g>
</svg>