<?xml version="1.0" encoding="UTF-8"?>
<svg id="Layer_1" xmlns="http://www.w3.org/2000/svg" version="1.1" xmlns:xlink="http://www.w3.org/1999/xlink" viewBox="0 0 25.51 25.51">
  <!-- Generator: Adobe Illustrator 29.6.1, SVG Export Plug-In . SVG Version: 2.1.1 Build 9)  -->
  <defs>
    <style>
      .st0 {
        fill: none;
        stroke: #cf9249;
        stroke-linecap: round;
        stroke-linejoin: round;
        stroke-width: 1.3px;
      }

      .st1 {
        fill: #fff;
      }

      .st2 {
        fill: #cf9249;
      }
    </style>
    <symbol id="_Новый_символ_27" data-name="Новый_символ_27" viewBox="0 0 25.51 25.51">
      <g>
        <rect class="st2" x="0" y="0" width="25.51" height="25.51" rx="3.03" ry="3.03"/>
        <path class="st1" d="M16.88,18.75c-1.77,2.81-4.57,3.65-6.37,3.58-3.64-.14-5.87-1.78-7.09-4.59-1.7-3.94-.37-8.57,3.42-10.77,1.52-.88,4.84-1.41,6.77-.03.17.12-.1,2.04.88,3.74,1.05,1.82,3.08,2.31,3.11,2.45.43,1.82.4,3.82-.74,5.63Z"/>
        <path class="st0" d="M10.75,10.07c.16,2.59.06,4.79.06,4.79,0,0-1.64.13-6.14-.1"/>
        <g>
          <path class="st1" d="M16.14,10.68c1.22,1.27,4.28,1.67,5.83-.16,1.3-1.55,2.02-4.36.12-6.4-1.59-1.71-4.56-1.51-5.96-.08-1.79,1.84-1.42,5.18,0,6.65ZM21.04,7.23c-.28.28-.66.44-1.06.44h-1.51v1.01h2c.17.17,0,.98,0,.98h-2v.97s-.79.17-.96,0v-.97h-1.02s-.17-.81,0-.98h1.02v-1.03h-1.02s-.16-.73,0-.99h1.02s-.07-1.52,0-2c0-.07,2.47,0,2.47,0,.83,0,1.5.68,1.5,1.5,0,.4-.16.78-.44,1.06Z"/>
          <path class="st1" d="M19.98,5.67h-1.51c-.06.29,0,.99,0,.99h1.51c.13,0,.26-.05.35-.15.09-.09.15-.22.15-.35,0-.27-.22-.5-.5-.5Z"/>
        </g>
      </g>
    </symbol>
  </defs>
  <use width="25.51" height="25.51" xlink:href="#_Новый_символ_27"/>
</svg>