<?xml version="1.0" encoding="UTF-8"?>
<svg id="Layer_1" xmlns="http://www.w3.org/2000/svg" version="1.1" viewBox="0 0 25.51 25.51">
  <!-- Generator: Adobe Illustrator 29.4.0, SVG Export Plug-In . SVG Version: 2.1.0 Build 152)  -->
  <defs>
    <style>
      .st0 {
        fill: #fff;
      }

      .st1 {
        fill: #675e6b;
      }
    </style>
  </defs>
  <g id="_Школа__x2116__65" data-name="Школа__x2116__65">
    <g>
      <rect class="st1" x="0" y="0" width="25.51" height="25.51" rx="3.03" ry="3.03"/>
      <g>
        <path class="st0" d="M10.22,18.79c-.47.25-3.82-3.13-3.66-3.66.06-.2,8.27-8.47,8.53-8.44.2.02,3.62,3.39,3.68,3.68.1.52-8.32,8.29-8.55,8.42Z"/>
        <path class="st0" d="M19.64,9.48c-.45.08-3.64-3.16-3.52-3.59.1-.35,1.78-1.98,1.88-2,.59-.09,3.63,3.31,3.67,3.58.03.22-1.69,1.95-2.03,2.01Z"/>
        <path class="st0" d="M4.03,21.44c-.8-.79,1.22-5.02,1.42-5.15.23-.15.29-.28,1.96,1.42,1.56,1.58,1.59,1.88,1.51,2.1-.14.35-4.1,2.41-4.89,1.63Z"/>
        <path class="st1" d="M4.38,19.91c-.07.33-.3,1.12.06,1.24s1.29-.06,1.48-.18c.1-.06-.38-.35-.72-.73s-.54-.83-.62-.81c-.11.04-.16.3-.2.47Z"/>
      </g>
    </g>
  </g>
</svg>